<svg width="37" height="38" viewBox="0 0 37 38" fill="none" xmlns="http://www.w3.org/2000/svg">
<g clip-path="url(#clip0_145_178)">
<path d="M36.5927 9.92933C36.5927 4.44677 31.7667 0 25.8094 0C19.8521 0 15.0261 4.44677 15.0261 9.92933C15.0261 12.1974 15.8569 14.2868 17.2535 15.9655C15.8392 17.6442 14.9907 19.7694 14.9907 22.0553C14.9907 27.5378 19.8167 31.9846 25.774 31.9846C31.7314 31.9846 36.5574 27.5378 36.5574 22.0553C36.5574 19.7872 35.7265 17.6978 34.33 16.0191C35.7442 14.3404 36.5927 12.2331 36.5927 9.92933Z" fill="#EE3D96"/>
<path d="M12.6922 4.96467C11.3841 4.96467 10.4648 4.01817 10.4648 2.64306C10.4648 1.26796 11.3841 0.321457 12.6922 0.321457C13.9473 0.321457 14.9196 1.23224 14.9196 2.64306C14.9019 4.05388 13.9473 4.96467 12.6922 4.96467ZM12.6922 1.21438C11.5255 1.21438 11.1543 1.9823 11.1543 2.6252C11.1543 3.21453 11.4725 4.05389 12.6922 4.05389C13.8589 4.05389 14.2302 3.28597 14.2302 2.6252C14.2302 2.00016 13.8766 1.21438 12.6922 1.21438Z" fill="#EE3D96"/>
<path d="M13.6471 6.33978L13.2582 6.35764C13.3996 6.48265 13.7532 6.8041 13.7532 7.5363C13.7532 8.35779 13.2582 8.92926 12.5334 8.92926H10.5889V8.12563H12.4627C12.7809 8.12563 13.2051 7.89347 13.2051 7.26842C13.2051 7.1077 13.1698 6.67909 12.8516 6.48265C12.6925 6.39336 12.5334 6.33978 12.4273 6.33978H10.5889V5.53615H13.6648V6.33978H13.6471Z" fill="#EE3D96"/>
<path d="M11.5078 13.0724C11.2603 12.9831 10.4648 12.7153 10.4648 11.3223C10.4648 10.2151 11.0659 9.48286 12.1089 9.48286C13.3463 9.48286 13.7529 10.4294 13.7529 11.2866C13.7529 11.9831 13.4877 12.5724 12.9574 12.876C12.6922 13.0367 12.4271 13.0903 11.9498 13.126V10.2865C11.0305 10.3401 11.0305 11.0901 11.0305 11.3223C11.0305 11.7509 11.1366 12.0902 11.5078 12.2331V13.0724ZM12.4447 12.3045C12.6392 12.2509 13.2049 12.0902 13.2049 11.2866C13.2049 10.5187 12.6745 10.3758 12.4447 10.3044V12.3045Z" fill="#EE3D96"/>
<path d="M14.7961 18.555H14.1774V15.7333H13.0461V18.2335H12.4273V15.7333H11.2076V18.6264H10.5889V14.8404H14.7961V18.555Z" fill="#EE3D96"/>
<path d="M10.5889 20.2158V19.4122H13.6648V20.2158H10.5889ZM14.036 20.2337V19.3943H14.7785V20.2337H14.036Z" fill="#EE3D96"/>
<path d="M13.6292 24.6626C13.6469 24.609 13.6823 24.5197 13.6823 24.3769C13.6823 24.2519 13.6646 24.234 13.6292 24.1804C13.5232 24.1983 13.4701 24.1983 13.3994 24.1983C12.5332 24.1983 12.5332 23.0018 12.5332 22.7517C12.5332 22.5196 12.5509 22.2517 12.6039 22.0195C12.5863 21.9838 12.5332 21.8767 12.4448 21.8767C12.3034 21.8767 12.2681 22.1088 12.2327 22.7875C12.1974 23.6268 12.1443 24.0018 11.9675 24.2519C11.7908 24.5197 11.5433 24.609 11.3312 24.609C10.3589 24.609 10.3589 23.1089 10.3589 22.8232C10.3589 21.4302 10.7124 20.9659 11.2428 20.9659C11.3488 20.9659 11.7201 20.9838 11.9322 21.4659C12.0029 21.3409 12.0913 21.1445 12.3034 21.1445C12.5332 21.1445 12.657 21.3588 12.7277 21.5731C12.8514 21.3945 13.0459 21.1981 13.3641 21.1981C14.248 21.1981 14.248 22.3946 14.248 22.6982C14.248 23.4304 14.1065 23.6804 14.0358 23.8233C14.1065 23.8947 14.2656 24.0911 14.2656 24.4304C14.2656 24.5197 14.2656 24.5733 14.248 24.6447H13.6292V24.6626ZM11.3312 21.8052C10.9599 21.8052 10.8715 22.3053 10.8715 22.841C10.8715 23.2339 10.9069 23.7875 11.3135 23.7875C11.5963 23.7875 11.6494 23.4839 11.667 23.3947C11.7024 23.2161 11.7377 22.3767 11.7554 22.1803C11.6847 22.0017 11.5786 21.8052 11.3312 21.8052ZM13.3994 22.0374C13.0459 22.0374 12.9928 22.5017 12.9928 22.6803C12.9928 22.8589 13.0282 23.3589 13.4171 23.3589C13.8237 23.3589 13.8237 22.8053 13.8237 22.6982C13.806 22.5732 13.806 22.0374 13.3994 22.0374Z" fill="#EE3D96"/>
<path d="M14.7961 25.9484H13.2582C13.3996 26.0734 13.7532 26.3949 13.7532 27.1271C13.7532 27.9486 13.2582 28.52 12.5334 28.52H10.5889V27.7164H12.4627C12.7809 27.7164 13.2051 27.4842 13.2051 26.8592C13.2051 26.6985 13.1698 26.2699 12.8516 26.0734C12.6925 25.9841 12.5334 25.9306 12.4273 25.9306H10.5889V25.1269H14.7961V25.9484Z" fill="#EE3D96"/>
<path d="M13.7 30.5202V31.3417H13.1874V30.5202H11.455C11.1368 30.5202 11.1191 30.7524 11.1191 31.0738V31.3417H10.5357C10.5181 31.2524 10.5181 31.0917 10.5181 30.8595C10.5181 30.5381 10.5181 29.7166 11.3843 29.7166H13.1874V29.0379H13.7V29.7166H14.5662V30.5202H13.7Z" fill="#EE3D96"/>
<path d="M3.50016 31.4846V6.42907H0V3.25025C2.79306 2.83951 3.76533 2.26803 4.63153 0.321457H10.6419V31.4846H3.50016Z" fill="#EE3D96"/>
<path d="M22.0266 18.3407C22.0089 18.3228 21.9912 18.305 21.9912 18.2871C23.0695 12.2152 24.5898 7.89345 24.6075 7.83987C24.6252 7.80416 24.6428 7.7863 24.6782 7.80416C24.7136 7.82201 24.7312 7.83987 24.7136 7.87559C24.6959 7.91131 23.1756 12.2331 22.0973 18.305C22.0973 18.3407 22.0619 18.3585 22.0266 18.3585C22.0266 18.3407 22.0266 18.3407 22.0266 18.3407Z" fill="#FFFDE9"/>
<path d="M24.7666 7.39342C24.4837 7.51843 23.7413 7.85774 24.1479 8.05418C24.3246 8.14347 24.6959 8.26848 24.8726 8.3042C25.3146 8.39349 24.9257 7.66129 24.7666 7.39342Z" fill="#C7D048"/>
<path d="M26.7997 1.26795C25.2794 0.75005 23.6177 1.73227 23.1405 3.4824C22.4864 6.00045 24.7314 7.48271 24.7314 7.48271C24.7314 7.48271 27.4008 7.67915 28.3907 5.26825C29.0624 3.58955 28.32 1.78584 26.7997 1.26795Z" fill="#F49AC1"/>
<path d="M22.3448 17.7692C22.3271 17.7692 22.3271 17.7513 22.3271 17.7335C21.5316 15.0369 21.726 10.8937 21.726 10.8401C21.726 10.8044 21.7614 10.7865 21.7791 10.7865C21.8144 10.7865 21.8321 10.8222 21.8321 10.8401C21.8321 10.8758 21.6377 15.0011 22.4331 17.6978C22.4508 17.7335 22.4331 17.7513 22.3978 17.7692C22.3801 17.7871 22.3624 17.7871 22.3448 17.7692Z" fill="#FFFDE9"/>
<path d="M21.7612 10.2329C21.5314 10.4294 20.9127 10.983 21.337 11.0544C21.5137 11.0901 21.9203 11.108 22.1148 11.0901C22.5567 11.0366 21.991 10.4472 21.7612 10.2329Z" fill="#53B7E8"/>
<path d="M22.009 3.76814C20.4003 3.71456 19.0745 5.12539 19.1275 6.92909C19.1982 9.53644 21.7615 10.3044 21.7615 10.3044C21.7615 10.3044 24.3778 9.73288 24.6429 7.1434C24.8197 5.35755 23.5999 3.83957 22.009 3.76814Z" fill="#53B7E8"/>
<path d="M21.4255 17.8406C21.4078 17.8406 21.4078 17.8228 21.3901 17.8228C21.3725 17.7871 21.3901 17.7692 21.4078 17.7513C23.6882 16.4298 27.0646 13.6975 27.1 13.6796C27.1177 13.6617 27.153 13.6617 27.1707 13.6796C27.1884 13.6975 27.1884 13.7332 27.1707 13.751C27.1353 13.7868 23.7589 16.5191 21.4608 17.8406C21.4608 17.8406 21.4432 17.8406 21.4255 17.8406Z" fill="#FFFDE9"/>
<path d="M27.436 13.4475C27.4183 13.751 27.3299 14.5904 27.0294 14.2689C26.9056 14.1261 26.6581 13.8225 26.5521 13.6618C26.3223 13.2689 27.1354 13.3939 27.436 13.4475Z" fill="#F8AA4B"/>
<path d="M32.4739 9.48286C33.4638 10.7508 33.0926 12.6795 31.6077 13.6975C29.4864 15.1619 27.3474 13.5189 27.3474 13.5189C27.3474 13.5189 26.2867 11.0366 28.2136 9.30428C29.5571 8.0899 31.484 8.19705 32.4739 9.48286Z" fill="#F8AA4B"/>
<path d="M20.5596 19.0193C20.5242 18.9836 20.5242 18.9479 20.5419 18.93C23.8653 15.3047 27.5245 10.4115 27.5599 10.3579C27.5776 10.3401 27.6129 10.3222 27.6306 10.3401C27.6483 10.3579 27.6659 10.3936 27.6483 10.4115C27.6129 10.4651 23.9537 15.3583 20.6126 18.9836C20.6126 19.0193 20.5772 19.0193 20.5596 19.0193Z" fill="#FFFDE9"/>
<path d="M28.1078 9.7686C28.1785 10.0722 28.3023 10.8937 27.931 10.6615C27.7719 10.5722 27.4537 10.3222 27.3123 10.1972C26.9941 9.89361 27.8073 9.80432 28.1078 9.7686Z" fill="#EFB676"/>
<path d="M31.9263 4.60749C33.2167 5.57185 33.3581 7.51843 32.1914 8.89353C30.5121 10.8758 28.0372 9.84003 28.0372 9.84003C28.0372 9.84003 26.3578 7.73273 27.772 5.55399C28.762 4.03602 30.6535 3.64313 31.9263 4.60749Z" fill="#B28ABF"/>
<path d="M21.514 18.68C21.514 18.6621 21.514 18.6621 21.514 18.68C21.4786 18.6621 21.4609 18.6264 21.4786 18.5907L24.3424 12.4652C24.3601 12.4295 24.3954 12.4295 24.4308 12.4295C24.4661 12.4474 24.4661 12.4831 24.4661 12.5188L21.6024 18.6443C21.5847 18.6621 21.5493 18.68 21.514 18.68Z" fill="#FFFDE9"/>
<path d="M24.6787 11.9116C24.3605 12.0188 23.5119 12.3045 23.9362 12.5545C24.113 12.6617 24.5019 12.8402 24.6963 12.9117C25.1383 13.0546 24.8024 12.2152 24.6787 11.9116Z" fill="#9FD18B"/>
<path d="M27.5245 5.53612C25.9512 4.80393 24.0421 5.67899 23.3526 7.51842C22.3627 10.1615 24.6254 12.0009 24.6254 12.0009C24.6254 12.0009 27.4892 12.5009 28.815 10.0186C29.7166 8.28633 29.1155 6.25046 27.5245 5.53612Z" fill="#9FD18B"/>
<path d="M18.4026 16.8584L16.8823 21.9838L23.7412 24.2161L25.4206 19.0907L18.4026 16.8584Z" fill="#FDD4BD"/>
<path d="M18.4025 16.8584L18.0312 18.0907L25.0139 20.323L25.4205 19.0907L18.4025 16.8584Z" fill="#D0B09F"/>
<path d="M25.9687 18.43L18.2436 15.9119L17.731 17.6621L25.3677 20.1265L25.9687 18.43Z" fill="#FDD4BD"/>
<path d="M25.4912 22.6803L26.4812 28.2879L34.0472 27.0913L33.234 21.4123L25.4912 22.6803Z" fill="#FDD4BD"/>
<path d="M25.4736 22.6446L25.7034 23.9482L33.3932 22.6803L33.2341 21.4123L25.4736 22.6446Z" fill="#CFA391"/>
<path d="M33.4461 20.5016L24.8901 21.8409L25.1553 23.7161L33.6936 22.3588L33.4461 20.5016Z" fill="#FDD4BD"/>
<path d="M22.1501 17.0549L22.3445 16.3941C22.3445 16.3941 22.3092 14.5011 21.3546 14.2332C20.4 13.9653 19.8166 14.6618 19.8166 15.3047C19.8166 15.9476 20.8596 16.3584 20.8596 16.3584L19.4277 16.1084L19.8166 16.8227L19.6222 17.5906L22.1501 17.0549ZM20.8243 15.0904C21.3192 14.7154 21.8849 16.2512 21.8849 16.2512C21.5844 16.1619 20.3116 15.5012 20.8243 15.0904Z" fill="#75BEE9"/>
<path d="M24.0948 19.055L24.3776 18.305L25.0317 17.8764L23.812 17.3049C23.812 17.3049 24.8903 17.5728 25.2615 17.0549C25.6328 16.537 25.562 15.6262 24.6251 15.2869C23.6882 14.9476 22.5745 16.4477 22.5745 16.4477L22.3447 17.1084L24.0948 19.055ZM23.0165 16.6263C23.0165 16.6263 24.36 15.7155 24.5367 16.3048C24.7312 16.9299 23.2993 16.7334 23.0165 16.6263Z" fill="#75BEE9"/>
<path d="M22.4509 16.0727C22.1504 15.9834 21.7261 15.9834 21.6024 16.3048C21.4786 16.6084 21.4256 17.1263 21.9559 17.3763C22.4862 17.6085 22.9282 17.3585 23.0166 17.0192C23.105 16.6798 23.1934 16.3048 22.4509 16.0727Z" fill="#75BEE9"/>
<path d="M21.7613 16.9299L19.7461 23.0196L20.736 23.3411L22.6806 17.1442L21.7613 16.9299Z" fill="#75BEE9"/>
<path d="M24.7182 21.2277L17.7686 18.9671L17.4814 19.8681L24.4311 22.1287L24.7182 21.2277Z" fill="#75BEE9"/>
<path d="M33.5701 23.7875L30.2467 24.3054L29.7518 21.1802C29.7518 21.1802 29.7518 21.1802 29.7694 21.1623L31.9615 22.0017L31.8731 21.1623L32.2973 20.448L30.8478 20.5016C30.8478 20.5016 32.0145 20.2337 32.1206 19.5551C32.2266 18.8764 31.7317 18.0549 30.671 18.18C29.8932 18.2692 29.5043 19.3765 29.3452 19.9479C29.2391 19.9479 29.133 19.9479 28.9916 19.9658C28.9386 19.9658 28.8856 19.9837 28.8325 20.0015C28.5143 19.5015 27.8072 18.5907 27.0471 18.7514C26.0041 18.9657 25.792 19.8944 26.0925 20.5016C26.393 21.1087 27.5774 21.0016 27.5774 21.0016L26.0925 21.4659L26.7996 21.966L26.9764 22.7874L28.7441 21.3588L29.1861 24.4661L25.8804 24.984L26.0395 25.9841L29.3452 25.4662L29.6811 27.895L30.7771 27.7164L30.3882 25.3055L33.7115 24.7876L33.5701 23.7875ZM31.0599 19.18C31.5195 19.6622 30.2467 20.1265 29.8225 20.2158C29.8048 20.198 29.8048 20.1801 29.7871 20.1622C29.9639 19.8765 30.671 18.7514 31.0599 19.18ZM26.9587 19.8229C27.1885 19.3408 28.037 20.0015 28.3729 20.2873C28.3376 20.3408 28.3199 20.3765 28.3022 20.4301C27.7719 20.4658 26.7112 20.3587 26.9587 19.8229Z" fill="#F9A14A"/>
</g>
<defs>
<clipPath id="clip0_145_178">
<rect width="36.5926" height="32.0024" fill="white"/>
</clipPath>
</defs>
</svg>
