<svg width="124" height="38" viewBox="0 0 124 38" fill="none" xmlns="http://www.w3.org/2000/svg">
<g clip-path="url(#clip0_149_309)">
<path d="M7.9345 21.048H12.1585V28.824H7.9345V21.048ZM17.3745 21.048H21.5985V28.824H17.3745V21.048ZM1.3745 26.968H28.1905V30.456H1.3745V26.968ZM12.3505 5.816H16.0625V7.928C16.0625 14.104 11.4865 19.448 3.6785 20.76L1.9505 17.272C8.7345 16.216 12.3505 11.896 12.3505 7.928V5.816ZM13.1825 5.816H16.8945V7.928C16.8945 11.96 20.4785 16.216 27.3265 17.272L25.5985 20.76C17.7585 19.416 13.1825 14.168 13.1825 7.928V5.816ZM32.06 6.424H48.028V9.848H32.06V6.424ZM31.74 20.888L31.292 17.432C36.252 17.432 43.292 17.336 49.116 16.568L49.436 19.64C43.484 20.76 36.636 20.888 31.74 20.888ZM34.396 9.144H38.46V19.032H34.396V9.144ZM41.564 9.144H45.692V19.032H41.564V9.144ZM51.132 4.248H55.42V22.072H51.132V4.248ZM45.436 22.648C51.708 22.648 55.612 24.696 55.612 28.216C55.612 31.8 51.708 33.848 45.436 33.848C39.164 33.848 35.324 31.8 35.324 28.216C35.324 24.696 39.164 22.648 45.436 22.648ZM45.436 25.88C41.564 25.88 39.548 26.648 39.548 28.216C39.548 29.848 41.564 30.616 45.436 30.616C49.34 30.616 51.356 29.848 51.356 28.216C51.356 26.648 49.34 25.88 45.436 25.88Z" fill="white"/>
<path d="M69.882 31.4216V36.4884C69.882 36.8738 70.3977 37.0953 70.7626 36.8665L79.7824 31.2119C79.9918 31.0807 80.2489 31.0164 80.5085 31.0304L121.649 33.2525C122.923 33.3213 124 32.4618 124 31.3769V3.0635C124 1.98081 122.927 1.12203 121.656 1.18758L63.0767 4.20843C61.91 4.2686 61 5.0906 61 6.08435V28.6025C61 29.6405 61.9897 30.4819 63.2105 30.4819H68.7767C69.3871 30.4819 69.882 30.9026 69.882 31.4216Z" fill="#F52D13"/>
<path d="M80.1455 22.049V24.5988H71.3981V22.049H80.1455ZM72.7192 9.86655V24.5988H68.8394V9.86655H72.7192Z" fill="white"/>
<path d="M86.1795 9.86655V24.5988H82.3116V9.86655H86.1795Z" fill="white"/>
<path d="M95.7124 21.3306L99.5684 9.86655H103.889L97.9498 24.5988H95.1292L95.7124 21.3306ZM92.2015 9.86655L96.0456 21.3306L96.6526 24.5988H93.7963L87.8933 9.86655H92.2015Z" fill="white"/>
<path d="M117.111 22.049V24.5988H107.887V22.049H117.111ZM109.208 9.86655V24.5988H105.329V9.86655H109.208ZM115.921 15.7959V18.2648H107.887V15.7959H115.921ZM117.123 9.86655V12.4265H107.887V9.86655H117.123Z" fill="white"/>
</g>
<defs>
<clipPath id="clip0_149_309">
<rect width="124" height="38" fill="white"/>
</clipPath>
</defs>
</svg>
