<svg width="129" height="45" viewBox="0 0 129 45" fill="none" xmlns="http://www.w3.org/2000/svg">
<g clip-path="url(#clip0_145_123)">
<g clip-path="url(#clip1_145_123)">
<path d="M43.3955 11.7753C43.3955 5.27348 37.6723 0 30.6074 0C23.5425 0 17.8193 5.27348 17.8193 11.7753C17.8193 14.465 18.8046 16.9429 20.4607 18.9337C18.7836 20.9245 17.7773 23.4448 17.7773 26.1556C17.7773 32.6575 23.5005 37.931 30.5654 37.931C37.6303 37.931 43.3535 32.6575 43.3535 26.1556C43.3535 23.4659 42.3682 20.988 40.7121 18.9972C42.3892 17.0065 43.3955 14.5074 43.3955 11.7753Z" fill="#EE3D96"/>
<path d="M15.0526 5.88766C13.5013 5.88766 12.4111 4.76519 12.4111 3.13444C12.4111 1.50368 13.5013 0.38121 15.0526 0.38121C16.5411 0.38121 17.6941 1.46132 17.6941 3.13444C17.6731 4.80755 16.5411 5.88766 15.0526 5.88766ZM15.0526 1.44014C13.669 1.44014 13.2287 2.35082 13.2287 3.11326C13.2287 3.81215 13.6061 4.80755 15.0526 4.80755C16.4362 4.80755 16.8765 3.89687 16.8765 3.11326C16.8765 2.372 16.4572 1.44014 15.0526 1.44014Z" fill="#EE3D96"/>
<path d="M16.1844 7.51842L15.7232 7.5396C15.8909 7.68785 16.3102 8.06907 16.3102 8.93739C16.3102 9.91161 15.7232 10.5893 14.8637 10.5893H12.5576V9.63629H14.7798C15.1572 9.63629 15.6603 9.36097 15.6603 8.61971C15.6603 8.42911 15.6184 7.92082 15.241 7.68785C15.0523 7.58196 14.8637 7.51842 14.7379 7.51842H12.5576V6.56538H16.2054V7.51842H16.1844Z" fill="#EE3D96"/>
<path d="M13.648 15.5028C13.3545 15.3969 12.4111 15.0792 12.4111 13.4273C12.4111 12.1142 13.1239 11.2459 14.3608 11.2459C15.8283 11.2459 16.3105 12.3683 16.3105 13.3849C16.3105 14.2109 15.996 14.9098 15.3671 15.2698C15.0526 15.4604 14.7381 15.524 14.1721 15.5663V12.1989C13.082 12.2624 13.082 13.1519 13.082 13.4273C13.082 13.9356 13.2078 14.3379 13.648 14.5074V15.5028ZM14.7591 14.5921C14.9897 14.5286 15.6606 14.3379 15.6606 13.3849C15.6606 12.4742 15.0316 12.3048 14.7591 12.2201V14.5921Z" fill="#EE3D96"/>
<path d="M17.5471 22.0046H16.8133V18.6584H15.4716V21.6234H14.7379V18.6584H13.2914V22.0893H12.5576V17.5995H17.5471V22.0046Z" fill="#EE3D96"/>
<path d="M12.5576 23.9742V23.0212H16.2054V23.9742H12.5576ZM16.6456 23.9954V23H17.5261V23.9954H16.6456Z" fill="#EE3D96"/>
<path d="M16.1635 29.2477C16.1845 29.1842 16.2264 29.0783 16.2264 28.9089C16.2264 28.7606 16.2054 28.7394 16.1635 28.6759C16.0377 28.6971 15.9748 28.6971 15.891 28.6971C14.8637 28.6971 14.8637 27.2781 14.8637 26.9816C14.8637 26.7063 14.8847 26.3886 14.9476 26.1133C14.9266 26.0709 14.8637 25.9438 14.7589 25.9438C14.5912 25.9438 14.5493 26.2192 14.5073 27.024C14.4654 28.0193 14.4025 28.4641 14.1929 28.7606C13.9832 29.0783 13.6898 29.1842 13.4382 29.1842C12.2852 29.1842 12.2852 27.4052 12.2852 27.0663C12.2852 25.4144 12.7044 24.8637 13.3334 24.8637C13.4591 24.8637 13.8994 24.8849 14.151 25.4567C14.2348 25.3085 14.3396 25.0755 14.5912 25.0755C14.8637 25.0755 15.0105 25.3297 15.0943 25.5838C15.2411 25.372 15.4717 25.1391 15.8491 25.1391C16.8973 25.1391 16.8973 26.558 16.8973 26.9181C16.8973 27.7864 16.7295 28.0829 16.6457 28.2523C16.7295 28.337 16.9182 28.57 16.9182 28.9724C16.9182 29.0783 16.9182 29.1418 16.8973 29.2265H16.1635V29.2477ZM13.4382 25.8591C12.9979 25.8591 12.8931 26.4521 12.8931 27.0875C12.8931 27.5534 12.935 28.21 13.4172 28.21C13.7526 28.21 13.8155 27.8499 13.8365 27.744C13.8784 27.5322 13.9204 26.5368 13.9413 26.3039C13.8575 26.0921 13.7317 25.8591 13.4382 25.8591ZM15.891 26.1345C15.4717 26.1345 15.4088 26.6851 15.4088 26.8969C15.4088 27.1087 15.4507 27.7017 15.9119 27.7017C16.3941 27.7017 16.3941 27.0451 16.3941 26.9181C16.3732 26.7698 16.3732 26.1345 15.891 26.1345Z" fill="#EE3D96"/>
<path d="M17.5471 30.7726H15.7232C15.8909 30.9208 16.3102 31.302 16.3102 32.1704C16.3102 33.1446 15.7232 33.8223 14.8637 33.8223H12.5576V32.8693H14.7798C15.1572 32.8693 15.6603 32.5939 15.6603 31.8527C15.6603 31.6621 15.6184 31.1538 15.241 30.9208C15.0523 30.8149 14.8637 30.7514 14.7379 30.7514H12.5576V29.7984H17.5471V30.7726Z" fill="#EE3D96"/>
<path d="M16.2472 36.1943V37.1685H15.6392V36.1943H13.5847C13.2074 36.1943 13.1864 36.4696 13.1864 36.8509V37.1685H12.4946C12.4736 37.0626 12.4736 36.872 12.4736 36.5967C12.4736 36.2155 12.4736 35.2413 13.5009 35.2413H15.6392V34.4365H16.2472V35.2413H17.2744V36.1943H16.2472Z" fill="#EE3D96"/>
<path d="M4.15089 37.338V7.62431H0V3.85451C3.31233 3.3674 4.46535 2.68968 5.49259 0.38121H12.6204V37.338H4.15089Z" fill="#EE3D96"/>
<path d="M26.121 21.7505C26.1001 21.7293 26.0791 21.7081 26.0791 21.6869C27.3579 14.4862 29.1608 9.36095 29.1818 9.29742C29.2028 9.25506 29.2237 9.23388 29.2656 9.25506C29.3076 9.27624 29.3285 9.29742 29.3076 9.33977C29.2866 9.38213 27.4837 14.5074 26.2049 21.7081C26.2049 21.7505 26.163 21.7716 26.121 21.7716C26.121 21.7505 26.121 21.7505 26.121 21.7505Z" fill="#FFFDE9"/>
<path d="M29.3705 8.76796C29.0351 8.91621 28.1546 9.3186 28.6368 9.55157C28.8464 9.65746 29.2867 9.80571 29.4963 9.84807C30.0204 9.95396 29.5592 9.08564 29.3705 8.76796Z" fill="#C7D048"/>
<path d="M31.7815 1.50368C29.9786 0.889497 28.008 2.05432 27.442 4.12983C26.6663 7.11602 29.3287 8.87385 29.3287 8.87385C29.3287 8.87385 32.4943 9.10681 33.6683 6.2477C34.4649 4.2569 33.5844 2.11786 31.7815 1.50368Z" fill="#F49AC1"/>
<path d="M26.4984 21.0728C26.4774 21.0728 26.4774 21.0516 26.4774 21.0304C25.534 17.8324 25.7646 12.919 25.7646 12.8554C25.7646 12.8131 25.8065 12.7919 25.8275 12.7919C25.8694 12.7919 25.8904 12.8343 25.8904 12.8554C25.8904 12.8978 25.6598 17.7901 26.6032 20.988C26.6241 21.0304 26.6032 21.0516 26.5612 21.0728C26.5403 21.0939 26.5193 21.0939 26.4984 21.0728Z" fill="#FFFDE9"/>
<path d="M25.8065 12.1354C25.534 12.3683 24.8003 13.0249 25.3034 13.1096C25.513 13.1519 25.9952 13.1731 26.2258 13.1519C26.7499 13.0884 26.0791 12.3895 25.8065 12.1354Z" fill="#53B7E8"/>
<path d="M26.1001 4.46869C24.1924 4.40515 22.6201 6.07826 22.683 8.21731C22.7668 11.3094 25.8066 12.2201 25.8066 12.2201C25.8066 12.2201 28.9093 11.5424 29.2238 8.47145C29.4334 6.35359 27.9869 4.5534 26.1001 4.46869Z" fill="#53B7E8"/>
<path d="M25.4085 21.1575C25.3876 21.1575 25.3876 21.1363 25.3666 21.1363C25.3456 21.0939 25.3666 21.0728 25.3876 21.0516C28.0919 19.4844 32.0961 16.244 32.138 16.2228C32.159 16.2017 32.2009 16.2017 32.2219 16.2228C32.2428 16.244 32.2428 16.2864 32.2219 16.3076C32.1799 16.3499 28.1758 19.5902 25.4505 21.1575C25.4505 21.1575 25.4295 21.1575 25.4085 21.1575Z" fill="#FFFDE9"/>
<path d="M32.5365 15.9475C32.5155 16.3076 32.4107 17.303 32.0543 16.9217C31.9076 16.7523 31.6141 16.3923 31.4883 16.2017C31.2158 15.7357 32.1801 15.884 32.5365 15.9475Z" fill="#F8AA4B"/>
<path d="M38.5114 11.2459C39.6854 12.7495 39.2452 15.0368 37.4842 16.244C34.9685 17.9807 32.4318 16.0322 32.4318 16.0322C32.4318 16.0322 31.174 13.0884 33.4591 11.0341C35.0523 9.59392 37.3374 9.721 38.5114 11.2459Z" fill="#F8AA4B"/>
<path d="M24.3809 22.5553C24.339 22.5129 24.339 22.4705 24.36 22.4494C28.3012 18.1501 32.6408 12.3471 32.6827 12.2836C32.7037 12.2624 32.7456 12.2413 32.7666 12.2624C32.7875 12.2836 32.8085 12.326 32.7875 12.3471C32.7456 12.4107 28.406 18.2136 24.4438 22.5129C24.4438 22.5553 24.4019 22.5553 24.3809 22.5553Z" fill="#FFFDE9"/>
<path d="M33.3327 11.5847C33.4165 11.9448 33.5633 12.919 33.123 12.6436C32.9344 12.5378 32.557 12.2413 32.3893 12.093C32.0119 11.733 32.9763 11.6271 33.3327 11.5847Z" fill="#EFB676"/>
<path d="M37.861 5.46409C39.3914 6.60774 39.5591 8.91621 38.1755 10.547C36.1839 12.8978 33.2489 11.6694 33.2489 11.6694C33.2489 11.6694 31.2573 9.17036 32.9345 6.58656C34.1085 4.78638 36.3516 4.32045 37.861 5.46409Z" fill="#B28ABF"/>
<path d="M25.513 22.1529C25.513 22.1317 25.513 22.1317 25.513 22.1529C25.4711 22.1317 25.4502 22.0893 25.4711 22.047L28.8673 14.7827C28.8883 14.7403 28.9302 14.7403 28.9721 14.7403C29.014 14.7615 29.014 14.8039 29.014 14.8462L25.6179 22.1105C25.5969 22.1317 25.555 22.1529 25.513 22.1529Z" fill="#FFFDE9"/>
<path d="M29.2656 14.1261C28.8882 14.2532 27.8819 14.5921 28.3851 14.8886C28.5947 15.0156 29.0559 15.2274 29.2865 15.3122C29.8106 15.4816 29.4123 14.4862 29.2656 14.1261Z" fill="#9FD18B"/>
<path d="M32.6407 6.56537C30.7749 5.69704 28.5108 6.7348 27.6932 8.9162C26.5192 12.0506 29.2026 14.232 29.2026 14.232C29.2026 14.232 32.5988 14.825 34.1711 11.8812C35.2402 9.82688 34.5275 7.41252 32.6407 6.56537Z" fill="#9FD18B"/>
<path d="M21.8234 19.9926L20.0205 26.0709L28.1546 28.7183L30.1462 22.64L21.8234 19.9926Z" fill="#FDD4BD"/>
<path d="M21.8235 19.9926L21.3833 21.454L29.6641 24.1013L30.1463 22.64L21.8235 19.9926Z" fill="#D0B09F"/>
<path d="M30.7961 21.8564L21.6348 18.8702L21.0269 20.9457L30.0833 23.8683L30.7961 21.8564Z" fill="#FDD4BD"/>
<path d="M30.23 26.8969L31.404 33.547L40.3766 32.128L39.4123 25.3932L30.23 26.8969Z" fill="#FDD4BD"/>
<path d="M30.209 26.8545L30.4815 28.4006L39.6009 26.8969L39.4122 25.3932L30.209 26.8545Z" fill="#CFA391"/>
<path d="M39.6637 24.3131L29.5171 25.9015L29.8316 28.1252L39.9572 26.5157L39.6637 24.3131Z" fill="#FDD4BD"/>
<path d="M26.2675 20.2256L26.4981 19.442C26.4981 19.442 26.4562 17.1971 25.3241 16.8794C24.1921 16.5617 23.5003 17.3877 23.5003 18.1501C23.5003 18.9125 24.7372 19.3996 24.7372 19.3996L23.0391 19.1031L23.5003 19.9503L23.2697 20.861L26.2675 20.2256ZM24.6952 17.896C25.2822 17.4512 25.9531 19.2726 25.9531 19.2726C25.5967 19.1667 24.0873 18.3831 24.6952 17.896Z" fill="#75BEE9"/>
<path d="M28.5735 22.5976L28.9089 21.7081L29.6846 21.1998L28.2381 20.5221C28.2381 20.5221 29.5169 20.8398 29.9571 20.2256C30.3974 19.6114 30.3135 18.5313 29.2024 18.1289C28.0913 17.7265 26.7706 19.5055 26.7706 19.5055L26.498 20.2891L28.5735 22.5976ZM27.2947 19.7173C27.2947 19.7173 28.888 18.6372 29.0976 19.3361C29.3282 20.0774 27.6301 19.8444 27.2947 19.7173Z" fill="#75BEE9"/>
<path d="M26.624 19.0608C26.2676 18.9549 25.7644 18.9549 25.6177 19.3361C25.4709 19.6961 25.408 20.3103 26.037 20.6068C26.6659 20.8822 27.19 20.5857 27.2948 20.1833C27.3996 19.7809 27.5044 19.3361 26.624 19.0608Z" fill="#75BEE9"/>
<path d="M25.8064 20.0774L23.4165 27.2993L24.5905 27.6805L26.8965 20.3315L25.8064 20.0774Z" fill="#75BEE9"/>
<path d="M29.313 25.1742L21.0713 22.4933L20.7307 23.5618L28.9724 26.2427L29.313 25.1742Z" fill="#75BEE9"/>
<path d="M39.8108 28.21L35.8695 28.8241L35.2825 25.1179C35.2825 25.1179 35.2825 25.1179 35.3035 25.0967L37.9031 26.0921L37.7982 25.0967L38.3014 24.2496L36.5823 24.3131C36.5823 24.3131 37.9659 23.9954 38.0917 23.1906C38.2175 22.3858 37.6305 21.4116 36.3727 21.5599C35.4503 21.6658 34.989 22.9788 34.8004 23.6566C34.6746 23.6566 34.5488 23.6566 34.3811 23.6777C34.3182 23.6777 34.2553 23.6989 34.1924 23.7201C33.8151 23.1271 32.9765 22.047 32.075 22.2376C30.8382 22.4917 30.5866 23.593 30.943 24.3131C31.2994 25.0332 32.704 24.9061 32.704 24.9061L30.943 25.4567L31.7815 26.0497L31.9912 27.024L34.0876 25.3297L34.6117 29.0148L30.6914 29.6289L30.8801 30.8149L34.8004 30.2008L35.1987 33.0811L36.4985 32.8693L36.0372 30.0101L39.9785 29.396L39.8108 28.21ZM36.8339 22.7459C37.379 23.3177 35.8695 23.8683 35.3664 23.9742C35.3454 23.9531 35.3454 23.9319 35.3245 23.9107C35.5341 23.5718 36.3727 22.2376 36.8339 22.7459ZM31.9702 23.5083C32.2428 22.9365 33.249 23.7201 33.6473 24.0589C33.6054 24.1225 33.5845 24.1648 33.5635 24.2284C32.9346 24.2707 31.6767 24.1437 31.9702 23.5083Z" fill="#F9A14A"/>
</g>
<path d="M60.7162 38.0893V44.4718C60.7162 44.9573 61.3659 45.2363 61.8255 44.9482L73.1875 37.8252C73.4512 37.6599 73.7751 37.5789 74.1021 37.5966L125.926 40.3957C127.53 40.4823 128.887 39.3996 128.887 38.0331V2.36747C128.887 1.00364 127.535 -0.0781408 125.934 0.00443205L52.1438 3.80971C50.6741 3.8855 49.5278 4.92095 49.5278 6.17276V34.5382C49.5278 35.8457 50.7745 36.9056 52.3124 36.9056H59.3239C60.0928 36.9056 60.7162 37.4356 60.7162 38.0893Z" fill="#F52D13"/>
<path d="M73.6454 26.283V29.4949H62.6265V26.283H73.6454ZM64.2906 10.9371V29.4949H59.4033V10.9371H64.2906Z" fill="white"/>
<path d="M81.2462 10.9371V29.4949H76.3739V10.9371H81.2462Z" fill="white"/>
<path d="M93.2545 25.378L98.1118 10.9371H103.554L96.0729 29.4949H92.5199L93.2545 25.378ZM88.832 10.9371L93.6743 25.378L94.4388 29.4949H90.8408L83.405 10.9371H88.832Z" fill="white"/>
<path d="M120.21 26.283V29.4949H108.591V26.283H120.21ZM110.255 10.9371V29.4949H105.368V10.9371H110.255ZM118.71 18.4061V21.5161H108.591V18.4061H118.71ZM120.225 10.9371V14.1618H108.591V10.9371H120.225Z" fill="white"/>
</g>
<defs>
<clipPath id="clip0_145_123">
<rect width="129" height="45" fill="white"/>
</clipPath>
<clipPath id="clip1_145_123">
<rect width="43.3957" height="37.9521" fill="white"/>
</clipPath>
</defs>
</svg>
