<svg width="196" height="38" viewBox="0 0 196 38" fill="none" xmlns="http://www.w3.org/2000/svg">
<path d="M14.1094 21.0938C14.1094 20.6562 14.0417 20.2656 13.9062 19.9219C13.7812 19.5677 13.5469 19.25 13.2031 18.9688C12.8698 18.6771 12.3958 18.3958 11.7812 18.125C11.1771 17.8438 10.3958 17.5521 9.4375 17.25C8.375 16.9167 7.38542 16.5417 6.46875 16.125C5.55208 15.7083 4.74479 15.224 4.04688 14.6719C3.35938 14.1198 2.82292 13.4844 2.4375 12.7656C2.05208 12.0365 1.85938 11.1927 1.85938 10.2344C1.85938 9.29688 2.05729 8.44271 2.45312 7.67188C2.85938 6.90104 3.43229 6.23958 4.17188 5.6875C4.91146 5.125 5.78125 4.69271 6.78125 4.39062C7.79167 4.08854 8.90625 3.9375 10.125 3.9375C11.8125 3.9375 13.2708 4.24479 14.5 4.85938C15.7396 5.47396 16.6979 6.30729 17.375 7.35938C18.0521 8.41146 18.3906 9.59375 18.3906 10.9062H14.1094C14.1094 10.1979 13.9583 9.57292 13.6562 9.03125C13.3646 8.48958 12.9167 8.0625 12.3125 7.75C11.7188 7.4375 10.9688 7.28125 10.0625 7.28125C9.1875 7.28125 8.45833 7.41146 7.875 7.67188C7.30208 7.93229 6.86979 8.28646 6.57812 8.73438C6.29688 9.18229 6.15625 9.68229 6.15625 10.2344C6.15625 10.651 6.25521 11.026 6.45312 11.3594C6.65104 11.6823 6.94792 11.9896 7.34375 12.2812C7.73958 12.5625 8.22917 12.8281 8.8125 13.0781C9.40625 13.3177 10.0938 13.5573 10.875 13.7969C12.125 14.1719 13.2188 14.5885 14.1562 15.0469C15.1042 15.5052 15.8906 16.026 16.5156 16.6094C17.151 17.1927 17.625 17.849 17.9375 18.5781C18.2604 19.3073 18.4219 20.1354 18.4219 21.0625C18.4219 22.0417 18.2292 22.9167 17.8438 23.6875C17.4583 24.4583 16.9062 25.1146 16.1875 25.6562C15.4688 26.1979 14.6042 26.6094 13.5938 26.8906C12.5938 27.1719 11.474 27.3125 10.2344 27.3125C9.13021 27.3125 8.03646 27.1667 6.95312 26.875C5.88021 26.5729 4.90625 26.125 4.03125 25.5312C3.15625 24.9271 2.45833 24.1667 1.9375 23.25C1.41667 22.3229 1.15625 21.2396 1.15625 20H5.46875C5.46875 20.7188 5.58333 21.3333 5.8125 21.8438C6.05208 22.3438 6.38542 22.7552 6.8125 23.0781C7.25 23.3906 7.76042 23.6198 8.34375 23.7656C8.92708 23.9115 9.55729 23.9844 10.2344 23.9844C11.1094 23.9844 11.8281 23.8646 12.3906 23.625C12.9635 23.375 13.3906 23.0312 13.6719 22.5938C13.9635 22.1562 14.1094 21.6562 14.1094 21.0938Z" fill="white"/>
<path d="M25.4688 3V27H21.3281V3H25.4688ZM24.8125 17.9375H23.5938C23.5938 16.7604 23.75 15.6771 24.0625 14.6875C24.375 13.6979 24.8177 12.8385 25.3906 12.1094C25.9635 11.3698 26.6458 10.7969 27.4375 10.3906C28.2396 9.98438 29.125 9.78125 30.0938 9.78125C30.9271 9.78125 31.6823 9.90104 32.3594 10.1406C33.0469 10.3698 33.6354 10.7396 34.125 11.25C34.6146 11.7604 34.9896 12.4271 35.25 13.25C35.5208 14.0625 35.6562 15.0521 35.6562 16.2188V27H31.5V16.1875C31.5 15.4062 31.3854 14.7917 31.1562 14.3438C30.9271 13.8854 30.599 13.5573 30.1719 13.3594C29.7552 13.1615 29.2396 13.0625 28.625 13.0625C27.9583 13.0625 27.3854 13.1927 26.9062 13.4531C26.4271 13.7031 26.0312 14.0521 25.7188 14.5C25.4167 14.9479 25.1875 15.4635 25.0312 16.0469C24.8854 16.6302 24.8125 17.2604 24.8125 17.9375Z" fill="white"/>
<path d="M38.5625 18.7188V18.3906C38.5625 17.151 38.7396 16.0104 39.0938 14.9688C39.4479 13.9167 39.9635 13.0052 40.6406 12.2344C41.3177 11.4635 42.1458 10.8646 43.125 10.4375C44.1042 10 45.2188 9.78125 46.4688 9.78125C47.7396 9.78125 48.8646 10 49.8438 10.4375C50.8333 10.8646 51.6667 11.4635 52.3438 12.2344C53.0208 13.0052 53.5365 13.9167 53.8906 14.9688C54.2448 16.0104 54.4219 17.151 54.4219 18.3906V18.7188C54.4219 19.9479 54.2448 21.0885 53.8906 22.1406C53.5365 23.1823 53.0208 24.0938 52.3438 24.875C51.6667 25.6458 50.8385 26.2448 49.8594 26.6719C48.8802 27.099 47.7604 27.3125 46.5 27.3125C45.25 27.3125 44.1302 27.099 43.1406 26.6719C42.151 26.2448 41.3177 25.6458 40.6406 24.875C39.9635 24.0938 39.4479 23.1823 39.0938 22.1406C38.7396 21.0885 38.5625 19.9479 38.5625 18.7188ZM42.6875 18.3906V18.7188C42.6875 19.4583 42.7604 20.151 42.9062 20.7969C43.0521 21.4427 43.276 22.0104 43.5781 22.5C43.8802 22.9896 44.2708 23.375 44.75 23.6562C45.2396 23.9271 45.8229 24.0625 46.5 24.0625C47.1667 24.0625 47.7396 23.9271 48.2188 23.6562C48.6979 23.375 49.0885 22.9896 49.3906 22.5C49.7031 22.0104 49.9323 21.4427 50.0781 20.7969C50.224 20.151 50.2969 19.4583 50.2969 18.7188V18.3906C50.2969 17.6615 50.224 16.9792 50.0781 16.3438C49.9323 15.6979 49.7031 15.1302 49.3906 14.6406C49.0885 14.1406 48.6927 13.75 48.2031 13.4688C47.724 13.1771 47.1458 13.0312 46.4688 13.0312C45.8021 13.0312 45.2292 13.1771 44.75 13.4688C44.2708 13.75 43.8802 14.1406 43.5781 14.6406C43.276 15.1302 43.0521 15.6979 42.9062 16.3438C42.7604 16.9792 42.6875 17.6615 42.6875 18.3906Z" fill="white"/>
<path d="M61.5469 13.3438V33.5H57.4062V10.0938H61.2344L61.5469 13.3438ZM72.4062 18.375V18.7031C72.4062 19.9323 72.2604 21.0729 71.9688 22.125C71.6875 23.1667 71.2708 24.0781 70.7188 24.8594C70.1667 25.6302 69.4792 26.2344 68.6562 26.6719C67.8438 27.099 66.9062 27.3125 65.8438 27.3125C64.8021 27.3125 63.8958 27.1146 63.125 26.7188C62.3542 26.3125 61.7031 25.7396 61.1719 25C60.6406 24.2604 60.2135 23.401 59.8906 22.4219C59.5781 21.4323 59.3438 20.3542 59.1875 19.1875V18.1406C59.3438 16.901 59.5781 15.776 59.8906 14.7656C60.2135 13.7448 60.6406 12.8646 61.1719 12.125C61.7031 11.375 62.349 10.7969 63.1094 10.3906C63.8802 9.98438 64.7812 9.78125 65.8125 9.78125C66.8854 9.78125 67.8281 9.98438 68.6406 10.3906C69.4635 10.7969 70.1562 11.3802 70.7188 12.1406C71.2812 12.901 71.7031 13.8073 71.9844 14.8594C72.2656 15.9115 72.4062 17.0833 72.4062 18.375ZM68.2656 18.7031V18.375C68.2656 17.625 68.1979 16.9323 68.0625 16.2969C67.9271 15.651 67.7188 15.0885 67.4375 14.6094C67.1562 14.1198 66.7917 13.7396 66.3438 13.4688C65.8958 13.1979 65.3542 13.0625 64.7188 13.0625C64.0833 13.0625 63.5365 13.1667 63.0781 13.375C62.6198 13.5833 62.2448 13.8802 61.9531 14.2656C61.6615 14.651 61.4323 15.1094 61.2656 15.6406C61.1094 16.1615 61.0052 16.7396 60.9531 17.375V19.9688C61.0469 20.7396 61.2292 21.4323 61.5 22.0469C61.7708 22.6615 62.1667 23.151 62.6875 23.5156C63.2188 23.8802 63.9062 24.0625 64.75 24.0625C65.3854 24.0625 65.9271 23.9219 66.375 23.6406C66.8229 23.3594 67.1875 22.974 67.4688 22.4844C67.75 21.9844 67.9531 21.4115 68.0781 20.7656C68.2031 20.1198 68.2656 19.4323 68.2656 18.7031Z" fill="white"/>
<path d="M79.5469 13.3438V33.5H75.4062V10.0938H79.2344L79.5469 13.3438ZM90.4062 18.375V18.7031C90.4062 19.9323 90.2604 21.0729 89.9688 22.125C89.6875 23.1667 89.2708 24.0781 88.7188 24.8594C88.1667 25.6302 87.4792 26.2344 86.6562 26.6719C85.8438 27.099 84.9062 27.3125 83.8438 27.3125C82.8021 27.3125 81.8958 27.1146 81.125 26.7188C80.3542 26.3125 79.7031 25.7396 79.1719 25C78.6406 24.2604 78.2135 23.401 77.8906 22.4219C77.5781 21.4323 77.3438 20.3542 77.1875 19.1875V18.1406C77.3438 16.901 77.5781 15.776 77.8906 14.7656C78.2135 13.7448 78.6406 12.8646 79.1719 12.125C79.7031 11.375 80.349 10.7969 81.1094 10.3906C81.8802 9.98438 82.7812 9.78125 83.8125 9.78125C84.8854 9.78125 85.8281 9.98438 86.6406 10.3906C87.4635 10.7969 88.1562 11.3802 88.7188 12.1406C89.2812 12.901 89.7031 13.8073 89.9844 14.8594C90.2656 15.9115 90.4062 17.0833 90.4062 18.375ZM86.2656 18.7031V18.375C86.2656 17.625 86.1979 16.9323 86.0625 16.2969C85.9271 15.651 85.7188 15.0885 85.4375 14.6094C85.1562 14.1198 84.7917 13.7396 84.3438 13.4688C83.8958 13.1979 83.3542 13.0625 82.7188 13.0625C82.0833 13.0625 81.5365 13.1667 81.0781 13.375C80.6198 13.5833 80.2448 13.8802 79.9531 14.2656C79.6615 14.651 79.4323 15.1094 79.2656 15.6406C79.1094 16.1615 79.0052 16.7396 78.9531 17.375V19.9688C79.0469 20.7396 79.2292 21.4323 79.5 22.0469C79.7708 22.6615 80.1667 23.151 80.6875 23.5156C81.2188 23.8802 81.9062 24.0625 82.75 24.0625C83.3854 24.0625 83.9271 23.9219 84.375 23.6406C84.8229 23.3594 85.1875 22.974 85.4688 22.4844C85.75 21.9844 85.9531 21.4115 86.0781 20.7656C86.2031 20.1198 86.2656 19.4323 86.2656 18.7031Z" fill="white"/>
<path d="M97.7969 10.0938V27H93.6562V10.0938H97.7969ZM93.375 5.67188C93.375 5.05729 93.5833 4.54688 94 4.14062C94.4271 3.73438 95 3.53125 95.7188 3.53125C96.4375 3.53125 97.0052 3.73438 97.4219 4.14062C97.849 4.54688 98.0625 5.05729 98.0625 5.67188C98.0625 6.27604 97.849 6.78125 97.4219 7.1875C97.0052 7.59375 96.4375 7.79688 95.7188 7.79688C95 7.79688 94.4271 7.59375 94 7.1875C93.5833 6.78125 93.375 6.27604 93.375 5.67188Z" fill="white"/>
<path d="M105.781 13.7031V27H101.656V10.0938H105.531L105.781 13.7031ZM105.125 17.9375H103.906C103.917 16.7083 104.083 15.5938 104.406 14.5938C104.729 13.5938 105.182 12.7344 105.766 12.0156C106.359 11.2969 107.062 10.7448 107.875 10.3594C108.688 9.97396 109.594 9.78125 110.594 9.78125C111.406 9.78125 112.141 9.89583 112.797 10.125C113.453 10.3542 114.016 10.7188 114.484 11.2188C114.964 11.7188 115.328 12.375 115.578 13.1875C115.839 13.9896 115.969 14.9792 115.969 16.1562V27H111.812V16.125C111.812 15.3542 111.698 14.7448 111.469 14.2969C111.25 13.849 110.927 13.5312 110.5 13.3438C110.083 13.1562 109.568 13.0625 108.953 13.0625C108.318 13.0625 107.76 13.1927 107.281 13.4531C106.812 13.7031 106.417 14.0521 106.094 14.5C105.781 14.9479 105.542 15.4635 105.375 16.0469C105.208 16.6302 105.125 17.2604 105.125 17.9375Z" fill="white"/>
<path d="M130.359 10.0938H134.109V26.4844C134.109 28.0156 133.776 29.3125 133.109 30.375C132.453 31.4479 131.531 32.2604 130.344 32.8125C129.156 33.375 127.776 33.6562 126.203 33.6562C125.526 33.6562 124.792 33.5625 124 33.375C123.219 33.1875 122.464 32.8906 121.734 32.4844C121.016 32.0885 120.417 31.5729 119.938 30.9375L121.797 28.5C122.359 29.1562 122.995 29.651 123.703 29.9844C124.411 30.3281 125.177 30.5 126 30.5C126.833 30.5 127.542 30.3438 128.125 30.0312C128.719 29.7292 129.172 29.2812 129.484 28.6875C129.807 28.1042 129.969 27.3854 129.969 26.5312V13.9531L130.359 10.0938ZM118.938 18.75V18.4219C118.938 17.1302 119.094 15.9583 119.406 14.9062C119.719 13.8438 120.167 12.9323 120.75 12.1719C121.344 11.4115 122.057 10.8229 122.891 10.4062C123.734 9.98958 124.682 9.78125 125.734 9.78125C126.849 9.78125 127.786 9.98438 128.547 10.3906C129.318 10.7969 129.953 11.375 130.453 12.125C130.964 12.875 131.359 13.7656 131.641 14.7969C131.932 15.8177 132.156 16.9427 132.312 18.1719V19.0625C132.167 20.2604 131.932 21.3594 131.609 22.3594C131.297 23.3594 130.88 24.2344 130.359 24.9844C129.839 25.724 129.193 26.2969 128.422 26.7031C127.651 27.1094 126.745 27.3125 125.703 27.3125C124.661 27.3125 123.724 27.099 122.891 26.6719C122.057 26.2448 121.344 25.6458 120.75 24.875C120.167 24.1042 119.719 23.1979 119.406 22.1562C119.094 21.1146 118.938 19.9792 118.938 18.75ZM123.062 18.4219V18.75C123.062 19.4792 123.135 20.1615 123.281 20.7969C123.427 21.4323 123.651 21.9948 123.953 22.4844C124.255 22.9635 124.635 23.3385 125.094 23.6094C125.552 23.8802 126.099 24.0156 126.734 24.0156C127.589 24.0156 128.286 23.8385 128.828 23.4844C129.38 23.1198 129.797 22.625 130.078 22C130.37 21.3646 130.557 20.651 130.641 19.8594V17.4062C130.589 16.7812 130.474 16.2031 130.297 15.6719C130.13 15.1406 129.896 14.6823 129.594 14.2969C129.292 13.9115 128.906 13.6094 128.438 13.3906C127.969 13.1719 127.411 13.0625 126.766 13.0625C126.141 13.0625 125.594 13.2031 125.125 13.4844C124.656 13.7552 124.271 14.1354 123.969 14.625C123.667 15.1146 123.438 15.6823 123.281 16.3281C123.135 16.974 123.062 17.6719 123.062 18.4219Z" fill="white"/>
<path d="M146.945 32.0468V36.579C146.945 36.9237 147.406 37.1218 147.732 36.9172L155.8 31.8593C155.988 31.7419 156.218 31.6844 156.45 31.6969L193.25 33.6846C194.389 33.7461 195.352 32.9772 195.352 32.0069V6.68112C195.352 5.71267 194.392 4.94451 193.255 5.00315L140.858 7.70524C139.814 7.75906 139 8.49431 139 9.38321V29.5252C139 30.4537 139.885 31.2063 140.977 31.2063H145.956C146.502 31.2063 146.945 31.5826 146.945 32.0468Z" fill="#F52D13"/>
<path d="M156.125 23.6633V25.944H148.3V23.6633H156.125ZM149.482 12.7663V25.944H146.012V12.7663H149.482Z" fill="white"/>
<path d="M161.522 12.7663V25.944H158.062V12.7663H161.522Z" fill="white"/>
<path d="M170.049 23.0207L173.498 12.7663H177.363L172.05 25.944H169.527L170.049 23.0207ZM166.909 12.7663L170.347 23.0207L170.89 25.944H168.335L163.055 12.7663H166.909Z" fill="white"/>
<path d="M189.19 23.6633V25.944H180.939V23.6633H189.19ZM182.121 12.7663V25.944H178.651V12.7663H182.121ZM188.125 18.07V20.2783H180.939V18.07H188.125ZM189.2 12.7663V15.0561H180.939V12.7663H189.2Z" fill="white"/>
</svg>
