<svg width="172" height="38" viewBox="0 0 172 38" fill="none" xmlns="http://www.w3.org/2000/svg">
<g clip-path="url(#clip0_154_506)">
<path d="M54.5 21.25C54.5 20.7188 54.4167 20.25 54.25 19.8438C54.0938 19.4271 53.8125 19.0521 53.4062 18.7188C53.0104 18.3854 52.4583 18.0677 51.75 17.7656C51.0521 17.4635 50.1667 17.1562 49.0938 16.8438C47.9688 16.5104 46.9531 16.1406 46.0469 15.7344C45.1406 15.3177 44.3646 14.8438 43.7188 14.3125C43.0729 13.7812 42.5781 13.1719 42.2344 12.4844C41.8906 11.7969 41.7188 11.0104 41.7188 10.125C41.7188 9.23958 41.901 8.42188 42.2656 7.67188C42.6302 6.92188 43.151 6.27083 43.8281 5.71875C44.5156 5.15625 45.3333 4.71875 46.2812 4.40625C47.2292 4.09375 48.2865 3.9375 49.4531 3.9375C51.1615 3.9375 52.6094 4.26562 53.7969 4.92188C54.9948 5.56771 55.9062 6.41667 56.5312 7.46875C57.1562 8.51042 57.4688 9.625 57.4688 10.8125H54.4688C54.4688 9.95833 54.2865 9.20312 53.9219 8.54688C53.5573 7.88021 53.0052 7.35938 52.2656 6.98438C51.526 6.59896 50.5885 6.40625 49.4531 6.40625C48.3802 6.40625 47.4948 6.56771 46.7969 6.89062C46.099 7.21354 45.5781 7.65104 45.2344 8.20312C44.901 8.75521 44.7344 9.38542 44.7344 10.0938C44.7344 10.5729 44.8333 11.0104 45.0312 11.4062C45.2396 11.7917 45.5573 12.151 45.9844 12.4844C46.4219 12.8177 46.974 13.125 47.6406 13.4062C48.3177 13.6875 49.125 13.9583 50.0625 14.2188C51.3542 14.5833 52.4688 14.9896 53.4062 15.4375C54.3438 15.8854 55.1146 16.3906 55.7188 16.9531C56.3333 17.5052 56.7865 18.1354 57.0781 18.8438C57.3802 19.5417 57.5312 20.3333 57.5312 21.2188C57.5312 22.1458 57.3438 22.9844 56.9688 23.7344C56.5938 24.4844 56.0573 25.125 55.3594 25.6562C54.6615 26.1875 53.8229 26.599 52.8438 26.8906C51.875 27.1719 50.7917 27.3125 49.5938 27.3125C48.5417 27.3125 47.5052 27.1667 46.4844 26.875C45.474 26.5833 44.5521 26.1458 43.7188 25.5625C42.8958 24.9792 42.2344 24.2604 41.7344 23.4062C41.2448 22.5417 41 21.5417 41 20.4062H44C44 21.1875 44.151 21.8594 44.4531 22.4219C44.7552 22.974 45.1667 23.4323 45.6875 23.7969C46.2188 24.1615 46.8177 24.4323 47.4844 24.6094C48.1615 24.776 48.8646 24.8594 49.5938 24.8594C50.6458 24.8594 51.5365 24.7135 52.2656 24.4219C52.9948 24.1302 53.5469 23.7135 53.9219 23.1719C54.3073 22.6302 54.5 21.9896 54.5 21.25Z" fill="white"/>
<path d="M63.8281 3V27H60.9375V3H63.8281ZM63.1406 17.9062L61.9375 17.8594C61.9479 16.7031 62.1198 15.6354 62.4531 14.6562C62.7865 13.6667 63.2552 12.8073 63.8594 12.0781C64.4635 11.349 65.1823 10.7865 66.0156 10.3906C66.8594 9.98438 67.7917 9.78125 68.8125 9.78125C69.6458 9.78125 70.3958 9.89583 71.0625 10.125C71.7292 10.3438 72.2969 10.6979 72.7656 11.1875C73.2448 11.6771 73.6094 12.3125 73.8594 13.0938C74.1094 13.8646 74.2344 14.8073 74.2344 15.9219V27H71.3281V15.8906C71.3281 15.0052 71.1979 14.2969 70.9375 13.7656C70.6771 13.224 70.2969 12.8333 69.7969 12.5938C69.2969 12.3438 68.6823 12.2188 67.9531 12.2188C67.2344 12.2188 66.5781 12.3698 65.9844 12.6719C65.401 12.974 64.8958 13.3906 64.4688 13.9219C64.0521 14.4531 63.724 15.0625 63.4844 15.75C63.2552 16.4271 63.1406 17.1458 63.1406 17.9062Z" fill="white"/>
<path d="M77.7969 18.7344V18.375C77.7969 17.1562 77.974 16.026 78.3281 14.9844C78.6823 13.9323 79.1927 13.0208 79.8594 12.25C80.526 11.4688 81.3333 10.8646 82.2812 10.4375C83.2292 10 84.2917 9.78125 85.4688 9.78125C86.6562 9.78125 87.724 10 88.6719 10.4375C89.6302 10.8646 90.4427 11.4688 91.1094 12.25C91.7865 13.0208 92.3021 13.9323 92.6562 14.9844C93.0104 16.026 93.1875 17.1562 93.1875 18.375V18.7344C93.1875 19.9531 93.0104 21.0833 92.6562 22.125C92.3021 23.1667 91.7865 24.0781 91.1094 24.8594C90.4427 25.6302 89.6354 26.2344 88.6875 26.6719C87.75 27.099 86.6875 27.3125 85.5 27.3125C84.3125 27.3125 83.2448 27.099 82.2969 26.6719C81.349 26.2344 80.5365 25.6302 79.8594 24.8594C79.1927 24.0781 78.6823 23.1667 78.3281 22.125C77.974 21.0833 77.7969 19.9531 77.7969 18.7344ZM80.6875 18.375V18.7344C80.6875 19.5781 80.7865 20.375 80.9844 21.125C81.1823 21.8646 81.4792 22.5208 81.875 23.0938C82.2812 23.6667 82.7865 24.1198 83.3906 24.4531C83.9948 24.776 84.6979 24.9375 85.5 24.9375C86.2917 24.9375 86.9844 24.776 87.5781 24.4531C88.1823 24.1198 88.6823 23.6667 89.0781 23.0938C89.474 22.5208 89.7708 21.8646 89.9688 21.125C90.1771 20.375 90.2812 19.5781 90.2812 18.7344V18.375C90.2812 17.5417 90.1771 16.7552 89.9688 16.0156C89.7708 15.2656 89.4688 14.6042 89.0625 14.0312C88.6667 13.4479 88.1667 12.9896 87.5625 12.6562C86.9688 12.3229 86.2708 12.1562 85.4688 12.1562C84.6771 12.1562 83.9792 12.3229 83.375 12.6562C82.7812 12.9896 82.2812 13.4479 81.875 14.0312C81.4792 14.6042 81.1823 15.2656 80.9844 16.0156C80.7865 16.7552 80.6875 17.5417 80.6875 18.375Z" fill="white"/>
<path d="M99.7031 13.3438V33.5H96.7969V10.0938H99.4531L99.7031 13.3438ZM111.094 18.4062V18.7344C111.094 19.9635 110.948 21.1042 110.656 22.1562C110.365 23.1979 109.938 24.1042 109.375 24.875C108.823 25.6458 108.141 26.2448 107.328 26.6719C106.516 27.099 105.583 27.3125 104.531 27.3125C103.458 27.3125 102.51 27.1354 101.688 26.7812C100.865 26.4271 100.167 25.9115 99.5938 25.2344C99.0208 24.5573 98.5625 23.7448 98.2188 22.7969C97.8854 21.849 97.6562 20.7812 97.5312 19.5938V17.8438C97.6562 16.5938 97.8906 15.474 98.2344 14.4844C98.5781 13.4948 99.0312 12.651 99.5938 11.9531C100.167 11.2448 100.859 10.7083 101.672 10.3438C102.484 9.96875 103.422 9.78125 104.484 9.78125C105.547 9.78125 106.49 9.98958 107.312 10.4062C108.135 10.8125 108.828 11.3958 109.391 12.1562C109.953 12.9167 110.375 13.8281 110.656 14.8906C110.948 15.9427 111.094 17.1146 111.094 18.4062ZM108.188 18.7344V18.4062C108.188 17.5625 108.099 16.7708 107.922 16.0312C107.745 15.2812 107.469 14.625 107.094 14.0625C106.729 13.4896 106.26 13.0417 105.688 12.7188C105.115 12.3854 104.432 12.2188 103.641 12.2188C102.911 12.2188 102.276 12.3438 101.734 12.5938C101.203 12.8438 100.75 13.1823 100.375 13.6094C100 14.026 99.6927 14.5052 99.4531 15.0469C99.224 15.5781 99.0521 16.1302 98.9375 16.7031V20.75C99.1458 21.4792 99.4375 22.1667 99.8125 22.8125C100.188 23.4479 100.688 23.9635 101.312 24.3594C101.938 24.7448 102.724 24.9375 103.672 24.9375C104.453 24.9375 105.125 24.776 105.688 24.4531C106.26 24.1198 106.729 23.6667 107.094 23.0938C107.469 22.5208 107.745 21.8646 107.922 21.125C108.099 20.375 108.188 19.5781 108.188 18.7344Z" fill="white"/>
<path d="M117.672 13.3438V33.5H114.766V10.0938H117.422L117.672 13.3438ZM129.062 18.4062V18.7344C129.062 19.9635 128.917 21.1042 128.625 22.1562C128.333 23.1979 127.906 24.1042 127.344 24.875C126.792 25.6458 126.109 26.2448 125.297 26.6719C124.484 27.099 123.552 27.3125 122.5 27.3125C121.427 27.3125 120.479 27.1354 119.656 26.7812C118.833 26.4271 118.135 25.9115 117.562 25.2344C116.99 24.5573 116.531 23.7448 116.188 22.7969C115.854 21.849 115.625 20.7812 115.5 19.5938V17.8438C115.625 16.5938 115.859 15.474 116.203 14.4844C116.547 13.4948 117 12.651 117.562 11.9531C118.135 11.2448 118.828 10.7083 119.641 10.3438C120.453 9.96875 121.391 9.78125 122.453 9.78125C123.516 9.78125 124.458 9.98958 125.281 10.4062C126.104 10.8125 126.797 11.3958 127.359 12.1562C127.922 12.9167 128.344 13.8281 128.625 14.8906C128.917 15.9427 129.062 17.1146 129.062 18.4062ZM126.156 18.7344V18.4062C126.156 17.5625 126.068 16.7708 125.891 16.0312C125.714 15.2812 125.438 14.625 125.062 14.0625C124.698 13.4896 124.229 13.0417 123.656 12.7188C123.083 12.3854 122.401 12.2188 121.609 12.2188C120.88 12.2188 120.245 12.3438 119.703 12.5938C119.172 12.8438 118.719 13.1823 118.344 13.6094C117.969 14.026 117.661 14.5052 117.422 15.0469C117.193 15.5781 117.021 16.1302 116.906 16.7031V20.75C117.115 21.4792 117.406 22.1667 117.781 22.8125C118.156 23.4479 118.656 23.9635 119.281 24.3594C119.906 24.7448 120.693 24.9375 121.641 24.9375C122.422 24.9375 123.094 24.776 123.656 24.4531C124.229 24.1198 124.698 23.6667 125.062 23.0938C125.438 22.5208 125.714 21.8646 125.891 21.125C126.068 20.375 126.156 19.5781 126.156 18.7344Z" fill="white"/>
<path d="M135.891 10.0938V27H132.984V10.0938H135.891ZM132.766 5.60938C132.766 5.14062 132.906 4.74479 133.188 4.42188C133.479 4.09896 133.906 3.9375 134.469 3.9375C135.021 3.9375 135.443 4.09896 135.734 4.42188C136.036 4.74479 136.188 5.14062 136.188 5.60938C136.188 6.05729 136.036 6.44271 135.734 6.76562C135.443 7.07812 135.021 7.23438 134.469 7.23438C133.906 7.23438 133.479 7.07812 133.188 6.76562C132.906 6.44271 132.766 6.05729 132.766 5.60938Z" fill="white"/>
<path d="M143.422 13.7031V27H140.531V10.0938H143.266L143.422 13.7031ZM142.734 17.9062L141.531 17.8594C141.542 16.7031 141.714 15.6354 142.047 14.6562C142.38 13.6667 142.849 12.8073 143.453 12.0781C144.057 11.349 144.776 10.7865 145.609 10.3906C146.453 9.98438 147.385 9.78125 148.406 9.78125C149.24 9.78125 149.99 9.89583 150.656 10.125C151.323 10.3438 151.891 10.6979 152.359 11.1875C152.839 11.6771 153.203 12.3125 153.453 13.0938C153.703 13.8646 153.828 14.8073 153.828 15.9219V27H150.922V15.8906C150.922 15.0052 150.792 14.2969 150.531 13.7656C150.271 13.224 149.891 12.8333 149.391 12.5938C148.891 12.3438 148.276 12.2188 147.547 12.2188C146.828 12.2188 146.172 12.3698 145.578 12.6719C144.995 12.974 144.49 13.3906 144.062 13.9219C143.646 14.4531 143.318 15.0625 143.078 15.75C142.849 16.4271 142.734 17.1458 142.734 17.9062Z" fill="white"/>
<path d="M169.172 10.0938H171.797V26.6406C171.797 28.1302 171.495 29.401 170.891 30.4531C170.286 31.5052 169.443 32.3021 168.359 32.8438C167.286 33.3958 166.047 33.6719 164.641 33.6719C164.057 33.6719 163.37 33.5781 162.578 33.3906C161.797 33.2135 161.026 32.9062 160.266 32.4688C159.516 32.0417 158.885 31.4635 158.375 30.7344L159.891 29.0156C160.599 29.8698 161.339 30.4635 162.109 30.7969C162.891 31.1302 163.661 31.2969 164.422 31.2969C165.339 31.2969 166.13 31.125 166.797 30.7812C167.464 30.4375 167.979 29.9271 168.344 29.25C168.719 28.5833 168.906 27.7604 168.906 26.7812V13.8125L169.172 10.0938ZM157.531 18.7344V18.4062C157.531 17.1146 157.682 15.9427 157.984 14.8906C158.297 13.8281 158.74 12.9167 159.312 12.1562C159.896 11.3958 160.599 10.8125 161.422 10.4062C162.245 9.98958 163.172 9.78125 164.203 9.78125C165.266 9.78125 166.193 9.96875 166.984 10.3438C167.786 10.7083 168.464 11.2448 169.016 11.9531C169.578 12.651 170.021 13.4948 170.344 14.4844C170.667 15.474 170.891 16.5938 171.016 17.8438V19.2812C170.901 20.5208 170.677 21.6354 170.344 22.625C170.021 23.6146 169.578 24.4583 169.016 25.1562C168.464 25.8542 167.786 26.3906 166.984 26.7656C166.182 27.1302 165.245 27.3125 164.172 27.3125C163.161 27.3125 162.245 27.099 161.422 26.6719C160.609 26.2448 159.911 25.6458 159.328 24.875C158.745 24.1042 158.297 23.1979 157.984 22.1562C157.682 21.1042 157.531 19.9635 157.531 18.7344ZM160.422 18.4062V18.7344C160.422 19.5781 160.505 20.3698 160.672 21.1094C160.849 21.849 161.115 22.5 161.469 23.0625C161.833 23.625 162.297 24.0677 162.859 24.3906C163.422 24.7031 164.094 24.8594 164.875 24.8594C165.833 24.8594 166.625 24.6562 167.25 24.25C167.875 23.8438 168.37 23.3073 168.734 22.6406C169.109 21.974 169.401 21.25 169.609 20.4688V16.7031C169.495 16.1302 169.318 15.5781 169.078 15.0469C168.849 14.5052 168.547 14.026 168.172 13.6094C167.807 13.1823 167.354 12.8438 166.812 12.5938C166.271 12.3438 165.635 12.2188 164.906 12.2188C164.115 12.2188 163.432 12.3854 162.859 12.7188C162.297 13.0417 161.833 13.4896 161.469 14.0625C161.115 14.625 160.849 15.2812 160.672 16.0312C160.505 16.7708 160.422 17.5625 160.422 18.4062Z" fill="white"/>
<path d="M10.8281 4.23438V27H5.9375V9.79688L0.65625 11.4062V7.625L10.3438 4.23438H10.8281ZM33.5469 20.75C33.5469 22.1875 33.2083 23.3958 32.5312 24.375C31.8542 25.3542 30.9271 26.0885 29.75 26.5781C28.5833 27.0677 27.25 27.3125 25.75 27.3125C24.2604 27.3125 22.9219 27.0677 21.7344 26.5781C20.5573 26.0885 19.625 25.3542 18.9375 24.375C18.25 23.3958 17.9062 22.1875 17.9062 20.75C17.9062 19.7708 18.099 18.8906 18.4844 18.1094C18.8802 17.3281 19.4271 16.6615 20.125 16.1094C20.8333 15.5573 21.6615 15.1354 22.6094 14.8438C23.5677 14.5521 24.6042 14.4062 25.7188 14.4062C27.2188 14.4062 28.5573 14.6667 29.7344 15.1875C30.9219 15.6979 31.8542 16.4271 32.5312 17.375C33.2083 18.3229 33.5469 19.4479 33.5469 20.75ZM28.6406 20.3906C28.6406 19.724 28.5156 19.1615 28.2656 18.7031C28.026 18.2344 27.6875 17.875 27.25 17.625C26.8125 17.3646 26.3021 17.2344 25.7188 17.2344C25.1354 17.2344 24.625 17.3646 24.1875 17.625C23.75 17.875 23.4062 18.2344 23.1562 18.7031C22.9167 19.1615 22.7969 19.724 22.7969 20.3906C22.7969 21.0365 22.9219 21.599 23.1719 22.0781C23.4219 22.5469 23.7656 22.9062 24.2031 23.1562C24.6406 23.3958 25.1562 23.5156 25.75 23.5156C26.3438 23.5156 26.8542 23.3958 27.2812 23.1562C27.7083 22.9062 28.0417 22.5469 28.2812 22.0781C28.5208 21.599 28.6406 21.0365 28.6406 20.3906ZM33.0625 10.2969C33.0625 11.474 32.75 12.5104 32.125 13.4062C31.5104 14.2917 30.651 14.9844 29.5469 15.4844C28.4427 15.974 27.1771 16.2188 25.75 16.2188C24.3229 16.2188 23.0521 15.974 21.9375 15.4844C20.8333 14.9844 19.9635 14.2917 19.3281 13.4062C18.7031 12.5104 18.3906 11.474 18.3906 10.2969C18.3906 8.92188 18.7031 7.76042 19.3281 6.8125C19.9635 5.86458 20.8333 5.14583 21.9375 4.65625C23.0417 4.16667 24.3021 3.92188 25.7188 3.92188C27.1562 3.92188 28.4271 4.16667 29.5312 4.65625C30.6354 5.14583 31.5 5.86458 32.125 6.8125C32.75 7.76042 33.0625 8.92188 33.0625 10.2969ZM28.1875 10.5469C28.1875 9.97396 28.0885 9.47917 27.8906 9.0625C27.7031 8.63542 27.4271 8.30729 27.0625 8.07812C26.6979 7.83854 26.25 7.71875 25.7188 7.71875C25.2083 7.71875 24.7708 7.83333 24.4062 8.0625C24.0417 8.28125 23.7604 8.60417 23.5625 9.03125C23.375 9.44792 23.2812 9.95312 23.2812 10.5469C23.2812 11.1302 23.375 11.6406 23.5625 12.0781C23.7604 12.5052 24.0417 12.8438 24.4062 13.0938C24.7812 13.3333 25.2292 13.4531 25.75 13.4531C26.2812 13.4531 26.724 13.3333 27.0781 13.0938C27.4427 12.8438 27.7188 12.5052 27.9062 12.0781C28.0938 11.6406 28.1875 11.1302 28.1875 10.5469Z" fill="#00A5EF"/>
</g>
<defs>
<clipPath id="clip0_154_506">
<rect width="172" height="38" fill="white"/>
</clipPath>
</defs>
</svg>
