<svg width="113" height="54" viewBox="0 0 113 54" fill="none" xmlns="http://www.w3.org/2000/svg">
<g clip-path="url(#clip0_136_120)">
<path d="M94.0636 16.9014V37.2369C94.0636 37.4444 93.9264 37.5827 93.7206 37.5827H87.8888C87.6829 37.5827 87.5457 37.4444 87.5457 37.2369V36.9602C87.5457 36.8219 87.4085 36.7527 87.2713 36.8219C85.6246 37.7902 83.7036 38.2744 81.7825 38.2744C75.6762 38.2744 70.7363 33.3635 70.7363 27.2767C70.7363 21.1899 75.6762 16.2789 81.7825 16.2789C83.7036 16.2789 85.6246 16.7631 87.2713 17.7314C87.4085 17.8006 87.5457 17.7314 87.5457 17.5931V16.9706C87.5457 16.7631 87.6829 16.6248 87.8888 16.6248H93.7206C93.8578 16.5556 94.0636 16.6939 94.0636 16.9014ZM87.5457 27.2075C87.5457 24.4408 85.6246 22.1582 82.8116 22.1582C79.9986 22.1582 77.7345 24.4408 77.7345 27.2075C77.7345 29.9742 79.9986 32.2568 82.8116 32.2568C85.6246 32.2568 87.5457 30.0434 87.5457 27.2075Z" fill="#00ABE2"/>
<path d="M69.2957 37.7902H63.1895C62.9837 37.7902 62.8464 37.6519 62.8464 37.5136L61.5429 23.4033C61.5429 23.0574 60.994 22.9882 60.9254 23.3341L56.3971 37.5827C56.3285 37.7211 56.1913 37.7902 56.0541 37.7902H51.8689C51.7317 37.7902 51.5945 37.7211 51.5258 37.5827L46.9976 23.3341C46.8604 22.9882 46.3801 23.0574 46.3801 23.4033L45.0765 37.5136C45.0765 37.6519 44.9393 37.7902 44.7335 37.7902H38.6272C38.4214 37.7902 38.2842 37.5827 38.2842 37.4444L41.7147 10.2613C41.7147 10.123 41.8519 9.98462 42.0577 9.98462H49.1245C49.2617 9.98462 49.3989 10.0538 49.4676 10.1921L53.6527 23.9566C53.7214 24.3024 54.2016 24.3024 54.2702 23.9566L58.3182 10.1921C58.3868 10.0538 58.524 9.98462 58.6613 9.98462H65.7967C65.9339 9.98462 66.1397 10.123 66.1397 10.2613L69.5702 37.4444C69.6388 37.5827 69.5016 37.7902 69.2957 37.7902Z" fill="#00CFD1"/>
<path d="M103.464 8.32458H96.6714V53.8373H103.464V8.32458Z" fill="#0098E4"/>
<path d="M113 0.16272H106.208V36.7527H113V0.16272Z" fill="#0078C5"/>
<path d="M12.0753 9.22375V37.1677C12.0753 37.3752 11.9381 37.5136 11.7323 37.5136H5.14573C4.9399 37.5136 4.80268 37.3752 4.80268 37.1677V15.8639C4.80268 15.6564 4.66546 15.5181 4.45963 15.5181H0.343048C0.137219 15.5181 0 15.3106 0 15.1031L0.548877 9.22375C0.548877 9.01624 0.686097 8.8779 0.891926 8.8779H11.7323C11.8695 8.8779 12.0753 9.01624 12.0753 9.22375Z" fill="#242424"/>
<path d="M35.266 28.3142C35.266 28.9367 35.1974 29.49 35.0602 30.1126C34.3055 33.7785 31.3553 36.8219 27.4445 37.7211C26.6212 37.9286 25.7293 37.9977 24.8374 37.9977C23.9454 37.9977 23.0535 37.8594 22.2302 37.7211C18.3194 36.7527 15.3692 33.7785 14.6145 30.1126C14.4773 29.5592 14.4087 28.9367 14.4087 28.3834C14.4087 28.3142 14.4087 28.3142 14.4087 28.245V28.1067V28.0375V27.8992C14.4087 27.7608 14.4087 27.6917 14.4087 27.5533C14.4087 27.4842 14.4087 27.415 14.4087 27.3458C14.4087 27.2767 14.4087 27.2075 14.4087 27.1383C14.6831 25.34 15.5064 23.6799 16.7414 22.2966V22.2274C16.7414 22.2274 16.7414 22.1582 16.81 22.1582C16.81 22.089 16.8786 22.089 16.8786 22.0199C16.9472 21.9507 16.9472 21.8815 17.0159 21.8815C17.0159 21.8815 17.0159 21.8815 17.0845 21.8124C17.2217 21.674 17.2217 21.4665 17.0845 21.3282C16.2612 20.2907 15.7123 19.0456 15.5064 17.7314C15.5064 17.6623 15.5064 17.5931 15.5064 17.5931C15.5064 17.5239 15.5064 17.4548 15.5064 17.3856C15.5064 17.3164 15.5064 17.1781 15.5064 17.1089C15.5064 17.0398 15.5064 17.0398 15.5064 16.9706C15.5064 16.8323 15.5064 16.6939 15.5064 16.6248C15.5064 12.1288 19.623 8.46292 24.7001 8.46292C29.7773 8.46292 33.8938 12.1288 33.8938 16.6248C33.8938 16.7631 33.8938 16.9014 33.8938 16.9706C33.8938 17.0398 33.8938 17.0398 33.8938 17.1089C33.8938 17.1781 33.8938 17.3164 33.8938 17.3856C33.8938 17.4548 33.8938 17.5239 33.8938 17.5931C33.8938 17.6623 33.8938 17.6623 33.8938 17.7314C33.688 19.0456 33.1391 20.2215 32.3158 21.3282C32.1786 21.4665 32.2472 21.674 32.3158 21.8124C32.3158 21.8124 32.3158 21.8124 32.3844 21.8815C32.453 21.9507 32.453 22.0199 32.5216 22.0199C32.5903 22.089 32.5903 22.089 32.6589 22.1582C32.7275 22.2274 32.7961 22.3657 32.9333 22.4349C34.0997 23.8183 34.8544 25.4091 35.0602 27.1383C35.0602 27.2075 35.0602 27.2767 35.0602 27.3458C35.0602 27.415 35.0602 27.4842 35.0602 27.5533C35.0602 27.6917 35.0602 27.7608 35.0602 27.8992V28.0375V28.1067V28.245C35.266 28.1758 35.266 28.1759 35.266 28.3142ZM28.8853 28.1067C28.8853 25.9625 27.1015 24.1641 24.906 24.1641C22.7105 24.1641 20.9266 25.8933 20.9266 28.1067C20.9266 30.2509 22.7105 32.0493 24.906 32.0493C27.1015 31.9801 28.8853 30.2509 28.8853 28.1067ZM21.6813 17.1089C21.6813 17.7314 21.8871 18.2848 22.1616 18.769C22.7105 19.6682 23.7396 20.2907 24.9746 20.2907C26.1409 20.2907 27.1015 19.7373 27.719 18.9073C28.062 18.4231 28.2678 17.8006 28.2678 17.1089C28.2678 16.2097 27.9248 15.4489 27.3073 14.8264C26.7584 14.273 25.9351 13.9272 24.9746 13.9272C24.0827 13.9272 23.2593 14.273 22.6419 14.8264C22.0244 15.3797 21.6813 16.2097 21.6813 17.1089Z" fill="#242424"/>
</g>
<defs>
<clipPath id="clip0_136_120">
<rect width="113" height="54" fill="white"/>
</clipPath>
</defs>
</svg>
